ply
format ascii 1.0
element vertex 66
property float x
property float y
property float z
end_header
0.0 0.0 0.0
0.0 0.5 0.0
0.0 1.0 0.0
0.0 1.5 0.0
0.0 2.0 0.0
0.5 0.0 0.0
0.5 0.5 0.0
0.5 1.0 0.0
0.5 1.5 0.0
0.5 2.0 0.0
1.0 0.0 0.0
1.0 0.5 0.0
1.0 1.0 0.0
1.0 1.5 0.0
1.0 2.0 0.0
1.5 0.0 0.0
1.5 0.5 0.0
1.5 1.0 0.0
1.5 1.5 0.0
1.5 2.0 0.0
2.0 0.0 0.0
2.0 0.5 0.0
2.0 1.0 0.0
2.0 1.5 0.0
2.0 2.0 0.0
2.5 0.0 0.0
2.5 0.5 0.0
2.5 1.0 0.0
2.5 1.5 0.0
2.5 2.0 0.0
1.0 1.0 0.4
1.2 1.0 0.4
1.4 1.0 0.4
1.6 1.0 0.4
1.8 1.0 0.4
1.0 1.2 0.4
1.2 1.2 0.4
1.4 1.2 0.4
1.6 1.2 0.4
1.8 1.2 0.4
1.0 1.4 0.4
1.2 1.4 0.4
1.4 1.4 0.4
1.6 1.4 0.4
1.8 1.4 0.4
1.0 1.6 0.4
1.2 1.6 0.4
1.4 1.6 0.4
1.6 1.6 0.4
1.8 1.6 0.4
2.5 2.0 0.7
2.65 2.0 0.7
2.8 2.0 0.7
2.95 2.0 0.7
2.5 2.15 0.7
2.65 2.15 0.7
2.8 2.15 0.7
2.95 2.15 0.7
2.5 2.3 0.7
2.65 2.3 0.7
2.8 2.3 0.7
2.95 2.3 0.7
2.5 2.45 0.7
2.65 2.45 0.7
2.8 2.45 0.7
2.95 2.45 0.7
